<?xml version="1.0" encoding="utf-8"?>
<!-- Generator: Adobe Illustrator 16.2.1, SVG Export Plug-In . SVG Version: 6.00 Build 0)  -->
<!DOCTYPE svg PUBLIC "-//W3C//DTD SVG 1.1//EN" "http://www.w3.org/Graphics/SVG/1.1/DTD/svg11.dtd">
<svg version="1.1" id="objects" xmlns="http://www.w3.org/2000/svg" xmlns:xlink="http://www.w3.org/1999/xlink" x="0px" y="0px"
	 width="800px" height="800px" viewBox="0 0 800 800" enable-background="new 0 0 800 800" xml:space="preserve">
<g>
	<defs>
		<rect id="SVGID_1_" width="800" height="800"/>
	</defs>
	<clipPath id="SVGID_2_">
		<use xlink:href="#SVGID_1_"  overflow="visible"/>
	</clipPath>
	<path clip-path="url(#SVGID_2_)" d="M377.436,571.608"/>
	<g clip-path="url(#SVGID_2_)">
		<linearGradient id="SVGID_3_" gradientUnits="userSpaceOnUse" x1="534.6025" y1="634.7646" x2="682.8208" y2="486.5464">
			<stop  offset="0" style="stop-color:#D9F7F9"/>
			<stop  offset="0.0987" style="stop-color:#D4F2F3"/>
			<stop  offset="0.2246" style="stop-color:#C6E2E4"/>
			<stop  offset="0.3652" style="stop-color:#B0C8C9"/>
			<stop  offset="0.5165" style="stop-color:#90A4A5"/>
			<stop  offset="0.6765" style="stop-color:#677576"/>
			<stop  offset="0.8409" style="stop-color:#363D3E"/>
			<stop  offset="1" style="stop-color:#000000"/>
		</linearGradient>
		<path opacity="0.2" fill="url(#SVGID_3_)" d="M730.663,534.388l-20.305,2.91l-97.988-98.277l-0.001,0.001
			c-0.81-0.824-10.964-4.326-10.964-4.326l-119.11,119.11c0,0,3.931,10.018,4.874,10.838l-0.01,0.012l98.111,97.708l-2.863,20.205
			l18.995,18.588l0.592-0.593l147.204-147.132L730.663,534.388z"/>
		<linearGradient id="SVGID_4_" gradientUnits="userSpaceOnUse" x1="523.2529" y1="740.7705" x2="671.4712" y2="592.5522">
			<stop  offset="0" style="stop-color:#D9F7F9"/>
			<stop  offset="0.0987" style="stop-color:#D4F2F3"/>
			<stop  offset="0.2246" style="stop-color:#C6E2E4"/>
			<stop  offset="0.3652" style="stop-color:#B0C8C9"/>
			<stop  offset="0.5165" style="stop-color:#90A4A5"/>
			<stop  offset="0.6765" style="stop-color:#677576"/>
			<stop  offset="0.8409" style="stop-color:#363D3E"/>
			<stop  offset="1" style="stop-color:#000000"/>
		</linearGradient>
		<path opacity="0.3" fill="url(#SVGID_4_)" d="M719.313,640.395l-20.305,2.91l-97.988-98.277l-0.001,0.001
			c-0.81-0.824-10.964-4.326-10.964-4.326l-119.11,119.11c0,0,3.931,10.018,4.874,10.838l-0.01,0.012l98.111,97.708l-2.863,20.205
			l18.995,18.588l0.592-0.593l147.204-147.132L719.313,640.395z"/>
		<linearGradient id="SVGID_5_" gradientUnits="userSpaceOnUse" x1="387.9785" y1="727.3184" x2="536.1971" y2="579.0997">
			<stop  offset="0" style="stop-color:#D9F7F9"/>
			<stop  offset="0.0987" style="stop-color:#D4F2F3"/>
			<stop  offset="0.2246" style="stop-color:#C6E2E4"/>
			<stop  offset="0.3652" style="stop-color:#B0C8C9"/>
			<stop  offset="0.5165" style="stop-color:#90A4A5"/>
			<stop  offset="0.6765" style="stop-color:#677576"/>
			<stop  offset="0.8409" style="stop-color:#363D3E"/>
			<stop  offset="1" style="stop-color:#000000"/>
		</linearGradient>
		<path opacity="0.2" fill="url(#SVGID_5_)" d="M584.039,626.941l-20.305,2.91l-97.988-98.277l-0.001,0.001
			c-0.81-0.824-10.964-4.326-10.964-4.326l-119.11,119.11c0,0,3.931,10.018,4.874,10.838l-0.01,0.012l98.111,97.708l-2.863,20.205
			l18.995,18.588l0.592-0.593l147.204-147.132L584.039,626.941z"/>
		<polygon fill="#F34A57" points="704.39,543.261 701.518,563.53 720.513,582.118 722.252,561.123 		"/>
		<polygon fill="#F34A57" points="710.321,537.376 730.663,534.46 749.198,553.504 728.199,555.185 		"/>
		<polygon fill="#201600" points="715.326,543.319 736.944,540.914 736.144,540.091 714.243,542.286 		"/>
		<path fill="#5D4837" d="M612.37,439.093L612.37,439.093c-0.811-0.823-10.965-4.325-10.965-4.325s3.931,10.018,4.874,10.838
			l-0.01,0.012l115.982,115.506l5.904-5.903L612.37,439.093z"/>
		<polygon fill="#F34A57" points="693.04,649.268 690.168,669.537 709.163,688.125 710.902,667.13 		"/>
		<polygon fill="#F34A57" points="698.972,643.383 719.313,640.467 737.849,659.511 716.85,661.191 		"/>
		<polygon fill="#201600" points="695.724,674.946 698.493,654.667 699.267,655.679 696.743,675.944 		"/>
		<polygon fill="#201600" points="701.819,680.99 704.59,660.712 705.361,661.723 702.839,681.988 		"/>
		<polygon fill="#201600" points="710.866,656.245 732.322,653.833 731.488,652.976 709.78,655.216 		"/>
		<polygon fill="#201600" points="703.977,649.326 725.595,646.921 724.794,646.098 702.894,648.293 		"/>
		<path fill="#5D4837" d="M601.021,545.1L601.021,545.1c-0.811-0.823-10.965-4.325-10.965-4.325s3.931,10.018,4.874,10.838
			l-0.01,0.012L710.902,667.13l5.904-5.903L601.021,545.1z"/>
		<polygon fill="#201600" points="707.073,568.939 709.843,548.66 710.616,549.672 708.093,569.938 		"/>
		<polygon fill="#201600" points="713.169,574.983 715.939,554.705 716.711,555.716 714.188,575.981 		"/>
		<polygon fill="#201600" points="722.216,550.238 743.672,547.826 742.838,546.969 721.13,549.209 		"/>
		<polygon fill="#F34A57" points="563.192,635.075 560.32,655.345 579.315,673.933 581.055,652.938 		"/>
		<polygon fill="#F34A57" points="569.124,629.19 589.466,626.274 608.001,645.318 587.002,646.999 		"/>
		<polygon fill="#201600" points="565.876,660.754 568.646,640.475 569.419,641.486 566.896,661.752 		"/>
		<polygon fill="#201600" points="571.972,666.798 574.742,646.52 575.514,647.53 572.991,667.796 		"/>
		<polygon fill="#201600" points="581.019,642.053 602.475,639.641 601.641,638.783 579.933,641.023 		"/>
		<polygon fill="#201600" points="574.129,635.134 595.747,632.729 594.946,631.905 573.046,634.101 		"/>
		<path fill="#5D4837" d="M471.173,530.907L471.173,530.907c-0.811-0.823-10.965-4.325-10.965-4.325s3.931,10.018,4.874,10.838
			l-0.01,0.012l115.982,115.506l5.904-5.903L471.173,530.907z"/>
	</g>
	<g clip-path="url(#SVGID_2_)">
		<g opacity="0.2">
			<circle fill="#D9F7F9" cx="262.846" cy="477.063" r="157.429"/>
			<circle fill="#D8F6F8" cx="263.485" cy="476.424" r="157.429"/>
			<circle fill="#D8F5F7" cx="264.126" cy="475.783" r="157.428"/>
			<circle fill="#D7F4F6" cx="264.767" cy="475.143" r="157.429"/>
			<circle fill="#D6F3F5" cx="265.406" cy="474.503" r="157.429"/>
			<circle fill="#D5F3F4" cx="266.047" cy="473.862" r="157.429"/>
			<circle fill="#D5F2F3" cx="266.687" cy="473.223" r="157.429"/>
			<circle fill="#D4F1F2" cx="267.327" cy="472.582" r="157.429"/>
			<circle fill="#D3F0F2" cx="267.968" cy="471.941" r="157.429"/>
			<circle fill="#D3EFF1" cx="268.607" cy="471.301" r="157.429"/>
			<circle fill="#D2EEF0" cx="269.248" cy="470.661" r="157.429"/>
			<circle fill="#D1EDEF" cx="269.888" cy="470.021" r="157.429"/>
			<circle fill="#D0ECEE" cx="270.528" cy="469.381" r="157.429"/>
			<circle fill="#D0EBED" cx="271.169" cy="468.741" r="157.429"/>
			<circle fill="#CFEBEC" cx="271.809" cy="468.101" r="157.429"/>
			<circle fill="#CEEAEB" cx="272.449" cy="467.46" r="157.429"/>
			<circle fill="#CDE9EA" cx="273.089" cy="466.82" r="157.428"/>
			<circle fill="#CDE8E9" cx="273.729" cy="466.18" r="157.429"/>
			<circle fill="#CCE7E8" cx="274.37" cy="465.54" r="157.429"/>
			<circle fill="#CBE6E7" cx="275.01" cy="464.899" r="157.429"/>
			<circle fill="#CBE5E6" cx="275.65" cy="464.259" r="157.428"/>
			<circle fill="#CAE4E5" cx="276.291" cy="463.619" r="157.429"/>
			<circle fill="#C9E3E5" cx="276.931" cy="462.979" r="157.429"/>
			<circle fill="#C8E3E4" cx="277.571" cy="462.339" r="157.428"/>
			<circle fill="#C8E2E3" cx="278.211" cy="461.698" r="157.429"/>
			<circle fill="#C7E1E2" cx="278.851" cy="461.058" r="157.428"/>
			<circle fill="#C6E0E1" cx="279.491" cy="460.418" r="157.428"/>
			<circle fill="#C6DFE0" cx="280.132" cy="459.777" r="157.429"/>
			<circle fill="#C5DEDF" cx="280.771" cy="459.137" r="157.429"/>
			<circle fill="#C4DDDE" cx="281.412" cy="458.497" r="157.429"/>
			<circle fill="#C3DCDD" cx="282.053" cy="457.857" r="157.429"/>
			<circle fill="#C3DBDC" cx="282.693" cy="457.217" r="157.428"/>
			<circle fill="#C2DBDB" cx="283.333" cy="456.576" r="157.429"/>
			<circle fill="#C1DADA" cx="283.973" cy="455.936" r="157.429"/>
			<circle fill="#C0D9D9" cx="284.613" cy="455.296" r="157.429"/>
			<circle fill="#C0D8D8" cx="285.253" cy="454.656" r="157.428"/>
			<circle fill="#BFD7D8" cx="285.894" cy="454.016" r="157.429"/>
			<circle fill="#BED6D7" cx="286.534" cy="453.376" r="157.429"/>
			<circle fill="#BED5D6" cx="287.174" cy="452.735" r="157.429"/>
			<circle fill="#BDD4D5" cx="287.814" cy="452.095" r="157.429"/>
			<circle fill="#BCD3D4" cx="288.455" cy="451.455" r="157.429"/>
			<circle fill="#BBD2D3" cx="289.095" cy="450.814" r="157.429"/>
			<circle fill="#BBD2D2" cx="289.735" cy="450.174" r="157.429"/>
			<circle fill="#BAD1D1" cx="290.375" cy="449.533" r="157.429"/>
			<circle fill="#B9D0D0" cx="291.016" cy="448.894" r="157.429"/>
			<circle fill="#B9CFCF" cx="291.656" cy="448.253" r="157.429"/>
			<circle fill="#B8CECE" cx="292.296" cy="447.613" r="157.429"/>
			<circle fill="#B7CDCD" cx="292.937" cy="446.973" r="157.429"/>
			<circle fill="#B6CCCC" cx="293.576" cy="446.332" r="157.428"/>
			<circle fill="#B6CBCB" cx="294.217" cy="445.691" r="157.429"/>
			<circle fill="#B5CACA" cx="294.857" cy="445.052" r="157.429"/>
			<circle fill="#B4CACA" cx="295.497" cy="444.412" r="157.429"/>
			<circle fill="#B3C9C9" cx="296.137" cy="443.771" r="157.429"/>
			<circle fill="#B3C8C8" cx="296.777" cy="443.131" r="157.429"/>
			<circle fill="#B2C7C7" cx="297.418" cy="442.491" r="157.429"/>
			<circle fill="#B1C6C6" cx="298.058" cy="441.851" r="157.428"/>
			<circle fill="#B1C5C5" cx="298.698" cy="441.211" r="157.429"/>
			<circle fill="#B0C4C4" cx="299.339" cy="440.57" r="157.429"/>
			<circle fill="#AFC3C3" cx="299.979" cy="439.931" r="157.429"/>
			<circle fill="#AEC2C2" cx="300.619" cy="439.29" r="157.429"/>
			<circle fill="#AEC2C1" cx="301.259" cy="438.649" r="157.429"/>
			<circle fill="#ADC1C0" cx="301.899" cy="438.01" r="157.429"/>
			<circle fill="#ACC0BF" cx="302.54" cy="437.369" r="157.429"/>
			<circle fill="#ACBFBE" cx="303.18" cy="436.729" r="157.429"/>
			<circle fill="#ABBEBD" cx="303.82" cy="436.089" r="157.428"/>
			<circle fill="#AABDBD" cx="304.46" cy="435.449" r="157.428"/>
			<circle fill="#A9BCBC" cx="305.101" cy="434.809" r="157.429"/>
			<circle fill="#A9BBBB" cx="305.741" cy="434.168" r="157.429"/>
			<circle fill="#A8BABA" cx="306.381" cy="433.527" r="157.429"/>
			<circle fill="#A7BAB9" cx="307.021" cy="432.888" r="157.428"/>
			<circle fill="#A7B9B8" cx="307.661" cy="432.248" r="157.428"/>
			<circle fill="#A6B8B7" cx="308.302" cy="431.607" r="157.429"/>
			<circle fill="#A5B7B6" cx="308.942" cy="430.967" r="157.428"/>
			<circle fill="#A4B6B5" cx="309.582" cy="430.327" r="157.429"/>
			<circle fill="#A4B5B4" cx="310.223" cy="429.687" r="157.429"/>
			<circle fill="#A3B4B3" cx="310.863" cy="429.047" r="157.428"/>
			<circle fill="#A2B3B2" cx="311.503" cy="428.406" r="157.429"/>
			<circle fill="#A1B2B1" cx="312.143" cy="427.766" r="157.428"/>
			<circle fill="#A1B2B0" cx="312.783" cy="427.126" r="157.428"/>
			<circle fill="#A0B1B0" cx="313.423" cy="426.485" r="157.428"/>
			<circle fill="#9FB0AF" cx="314.063" cy="425.845" r="157.429"/>
			<circle fill="#9FAFAE" cx="314.704" cy="425.205" r="157.429"/>
			<circle fill="#9EAEAD" cx="315.345" cy="424.565" r="157.429"/>
			<circle fill="#9DADAC" cx="315.984" cy="423.925" r="157.429"/>
			<circle fill="#9CACAB" cx="316.624" cy="423.284" r="157.429"/>
			<circle fill="#9CABAA" cx="317.265" cy="422.645" r="157.429"/>
			<circle fill="#9BAAA9" cx="317.905" cy="422.004" r="157.429"/>
			<circle fill="#9AAAA8" cx="318.545" cy="421.363" r="157.429"/>
			<circle fill="#9AA9A7" cx="319.186" cy="420.724" r="157.429"/>
			<circle fill="#99A8A6" cx="319.826" cy="420.083" r="157.429"/>
			<circle fill="#98A7A5" cx="320.466" cy="419.443" r="157.429"/>
			<circle fill="#97A6A4" cx="321.106" cy="418.803" r="157.429"/>
			<circle fill="#97A5A3" cx="321.746" cy="418.162" r="157.429"/>
			<circle fill="#96A4A2" cx="322.387" cy="417.522" r="157.429"/>
			<circle fill="#95A3A2" cx="323.027" cy="416.883" r="157.429"/>
			<circle fill="#94A2A1" cx="323.667" cy="416.242" r="157.429"/>
			<circle fill="#94A2A0" cx="324.307" cy="415.602" r="157.429"/>
			<circle fill="#93A19F" cx="324.947" cy="414.962" r="157.429"/>
			<circle fill="#92A09E" cx="325.588" cy="414.321" r="157.429"/>
			<circle fill="#929F9D" cx="326.228" cy="413.682" r="157.428"/>
			<circle fill="#919E9C" cx="326.868" cy="413.041" r="157.429"/>
			<circle fill="#909D9B" cx="327.509" cy="412.4" r="157.429"/>
			<circle fill="#8F9C9A" cx="328.148" cy="411.76" r="157.429"/>
			<circle fill="#8F9B99" cx="328.789" cy="411.12" r="157.428"/>
			<circle fill="#8E9A98" cx="329.429" cy="410.479" r="157.428"/>
			<circle fill="#8D9997" cx="330.069" cy="409.84" r="157.429"/>
			<circle fill="#8D9996" cx="330.71" cy="409.199" r="157.429"/>
			<circle fill="#8C9895" cx="331.35" cy="408.56" r="157.429"/>
			<circle fill="#8B9795" cx="331.99" cy="407.919" r="157.428"/>
			<circle fill="#8A9694" cx="332.63" cy="407.278" r="157.429"/>
			<circle fill="#8A9593" cx="333.271" cy="406.639" r="157.429"/>
			<circle fill="#899492" cx="333.911" cy="405.998" r="157.429"/>
			<circle fill="#889391" cx="334.551" cy="405.358" r="157.429"/>
			<circle fill="#879290" cx="335.191" cy="404.718" r="157.428"/>
			<circle fill="#87918F" cx="335.831" cy="404.077" r="157.429"/>
			<circle fill="#86918E" cx="336.472" cy="403.438" r="157.429"/>
			<circle fill="#85908D" cx="337.112" cy="402.797" r="157.429"/>
			<circle fill="#858F8C" cx="337.752" cy="402.157" r="157.429"/>
			<circle fill="#848E8B" cx="338.392" cy="401.517" r="157.429"/>
			<circle fill="#838D8A" cx="339.032" cy="400.876" r="157.428"/>
			<circle fill="#828C89" cx="339.673" cy="400.236" r="157.429"/>
			<circle fill="#828B88" cx="340.313" cy="399.596" r="157.429"/>
			<circle fill="#818A87" cx="340.953" cy="398.956" r="157.429"/>
			<circle fill="#808987" cx="341.594" cy="398.315" r="157.429"/>
			<circle fill="#808986" cx="342.233" cy="397.676" r="157.429"/>
			<circle fill="#7F8885" cx="342.874" cy="397.035" r="157.429"/>
			<circle fill="#7E8784" cx="343.514" cy="396.395" r="157.429"/>
			<circle fill="#7D8683" cx="344.154" cy="395.755" r="157.429"/>
			<circle fill="#7D8582" cx="344.795" cy="395.114" r="157.429"/>
			<circle fill="#7C8481" cx="345.435" cy="394.475" r="157.429"/>
			<circle fill="#7B8380" cx="346.075" cy="393.833" r="157.429"/>
			<circle fill="#7A827F" cx="346.715" cy="393.193" r="157.429"/>
			<circle fill="#7A817E" cx="347.355" cy="392.553" r="157.429"/>
			<circle fill="#79817D" cx="347.996" cy="391.913" r="157.429"/>
			<circle fill="#78807C" cx="348.636" cy="391.273" r="157.429"/>
			<circle fill="#787F7B" cx="349.276" cy="390.633" r="157.429"/>
			<circle fill="#777E7A" cx="349.917" cy="389.992" r="157.429"/>
			<circle fill="#767D7A" cx="350.557" cy="389.352" r="157.429"/>
			<circle fill="#757C79" cx="351.197" cy="388.712" r="157.429"/>
			<circle fill="#757B78" cx="351.837" cy="388.072" r="157.429"/>
			<circle fill="#747A77" cx="352.477" cy="387.432" r="157.429"/>
			<circle fill="#737976" cx="353.117" cy="386.792" r="157.429"/>
			<circle fill="#737975" cx="353.758" cy="386.151" r="157.429"/>
			<circle fill="#727874" cx="354.398" cy="385.511" r="157.429"/>
			<circle fill="#717773" cx="355.038" cy="384.871" r="157.429"/>
			<circle fill="#707672" cx="355.679" cy="384.23" r="157.429"/>
			<circle fill="#707571" cx="356.318" cy="383.59" r="157.429"/>
			<circle fill="#6F7470" cx="356.959" cy="382.95" r="157.429"/>
			<circle fill="#6E736F" cx="357.599" cy="382.31" r="157.428"/>
			<circle fill="#6E726E" cx="358.239" cy="381.669" r="157.429"/>
			<circle fill="#6D716D" cx="358.88" cy="381.029" r="157.429"/>
			<circle fill="#6C716D" cx="359.52" cy="380.389" r="157.428"/>
			<circle fill="#6B706C" cx="360.16" cy="379.749" r="157.429"/>
			<circle fill="#6B6F6B" cx="360.8" cy="379.108" r="157.428"/>
			<circle fill="#6A6E6A" cx="361.44" cy="378.468" r="157.429"/>
			<circle fill="#696D69" cx="362.081" cy="377.828" r="157.429"/>
			<circle fill="#686C68" cx="362.721" cy="377.188" r="157.429"/>
			<circle fill="#686B67" cx="363.361" cy="376.548" r="157.429"/>
			<circle fill="#676A66" cx="364.001" cy="375.908" r="157.428"/>
			<circle fill="#666965" cx="364.642" cy="375.267" r="157.429"/>
			<circle fill="#666964" cx="365.282" cy="374.627" r="157.429"/>
			<circle fill="#656863" cx="365.922" cy="373.987" r="157.429"/>
			<circle fill="#646762" cx="366.562" cy="373.347" r="157.429"/>
			<circle fill="#636661" cx="367.202" cy="372.707" r="157.429"/>
			<circle fill="#636560" cx="367.843" cy="372.066" r="157.429"/>
			<circle fill="#62645F" cx="368.483" cy="371.426" r="157.429"/>
			<circle fill="#61635F" cx="369.123" cy="370.785" r="157.428"/>
			<circle fill="#61625E" cx="369.764" cy="370.146" r="157.429"/>
			<circle fill="#60615D" cx="370.404" cy="369.505" r="157.428"/>
			<circle fill="#5F605C" cx="371.044" cy="368.865" r="157.429"/>
			<circle fill="#5E605B" cx="371.685" cy="368.225" r="157.429"/>
			<circle fill="#5E5F5A" cx="372.324" cy="367.584" r="157.429"/>
			<circle fill="#5D5E59" cx="372.965" cy="366.944" r="157.429"/>
			<circle fill="#5C5D58" cx="373.605" cy="366.304" r="157.428"/>
			<circle fill="#5B5C57" cx="374.245" cy="365.664" r="157.429"/>
			<circle fill="#5B5B56" cx="374.885" cy="365.023" r="157.429"/>
			<circle fill="#5A5A55" cx="375.525" cy="364.383" r="157.429"/>
			<circle fill="#595954" cx="376.166" cy="363.743" r="157.429"/>
			<circle fill="#595853" cx="376.806" cy="363.103" r="157.429"/>
			<circle fill="#585852" cx="377.446" cy="362.462" r="157.429"/>
			<circle fill="#575752" cx="378.087" cy="361.822" r="157.429"/>
			<circle fill="#565651" cx="378.727" cy="361.182" r="157.428"/>
			<circle fill="#565550" cx="379.367" cy="360.542" r="157.429"/>
			<circle fill="#55544F" cx="380.007" cy="359.901" r="157.428"/>
			<circle fill="#54534E" cx="380.647" cy="359.261" r="157.429"/>
			<circle fill="#54524D" cx="381.288" cy="358.621" r="157.429"/>
			<circle fill="#53514C" cx="381.928" cy="357.981" r="157.429"/>
			<circle fill="#52504B" cx="382.568" cy="357.34" r="157.429"/>
			<circle fill="#51504A" cx="383.208" cy="356.7" r="157.428"/>
			<circle fill="#514F49" cx="383.848" cy="356.06" r="157.429"/>
			<circle fill="#504E48" cx="384.489" cy="355.42" r="157.429"/>
			<circle fill="#4F4D47" cx="385.129" cy="354.78" r="157.429"/>
			<circle fill="#4E4C46" cx="385.77" cy="354.14" r="157.429"/>
			<circle fill="#4E4B45" cx="386.409" cy="353.499" r="157.429"/>
			<circle fill="#4D4A45" cx="387.05" cy="352.859" r="157.429"/>
			<circle fill="#4C4944" cx="387.69" cy="352.219" r="157.429"/>
			<circle fill="#4C4843" cx="388.33" cy="351.579" r="157.429"/>
			<circle fill="#4B4842" cx="388.97" cy="350.938" r="157.429"/>
			<circle fill="#4A4741" cx="389.611" cy="350.298" r="157.428"/>
			<circle fill="#494640" cx="390.25" cy="349.658" r="157.428"/>
			<circle fill="#49453F" cx="390.891" cy="349.018" r="157.429"/>
			<circle fill="#48443E" cx="391.531" cy="348.377" r="157.429"/>
		</g>
		<circle fill="#007EA0" cx="391.032" cy="348.377" r="157.429"/>
		<g>
			<circle fill="#FFFFFF" cx="391.04" cy="348.381" r="125.237"/>
		</g>
		<path fill="#F34A57" d="M391.031,217.3c-72.26,0-131.083,58.795-131.083,131.084c0,70.746,56.346,128.581,126.507,131.003
			c1.518,0.053,3.032,0.08,4.576,0.08c1.917,0,3.809-0.054,5.696-0.135c69.653-2.978,125.389-60.577,125.389-130.949
			C522.116,276.095,463.321,217.3,391.031,217.3z M396.781,467.624c-1.915,0.08-3.833,0.132-5.75,0.132
			c-1.515,0-3.032-0.025-4.55-0.081c-63.718-2.394-114.823-54.988-114.823-119.291c0-65.823,53.554-119.4,119.373-119.4
			c65.85,0,119.402,53.577,119.402,119.4C510.434,412.289,459.966,464.616,396.781,467.624z"/>
		<g>
			<path fill="#F34A57" d="M391.04,247.342c-55.997,0-101.555,45.325-101.555,101.04c0,55.708,45.558,101.032,101.555,101.032
				c55.995,0,101.552-45.323,101.552-101.032C492.592,292.667,447.035,247.342,391.04,247.342z M391.04,437.722
				c-49.546,0-89.857-40.077-89.857-89.34s40.312-89.34,89.857-89.34c49.547,0,89.855,40.077,89.855,89.34
				S440.587,437.722,391.04,437.722z"/>
			<path fill="#F34A57" d="M391.04,277.395c-39.713,0-72.022,31.845-72.022,70.987c0,39.145,32.31,70.99,72.022,70.99
				c39.711,0,72.02-31.845,72.02-70.99C463.06,309.24,430.751,277.395,391.04,277.395z M391.04,407.67
				c-33.265,0-60.328-26.598-60.328-59.289c0-32.695,27.063-59.296,60.328-59.296c33.263,0,60.322,26.601,60.322,59.296
				C451.362,381.072,424.303,407.67,391.04,407.67z"/>
			<path fill="#F34A57" d="M391.04,307.438c-23.429,0-42.487,18.366-42.487,40.943c0,22.575,19.059,40.941,42.487,40.941
				c23.424,0,42.487-18.366,42.487-40.941C433.527,325.805,414.464,307.438,391.04,307.438z M391.04,377.628
				c-16.979,0-30.793-13.12-30.793-29.247c0-16.125,13.814-29.244,30.793-29.244s30.79,13.118,30.79,29.244
				C421.83,364.508,408.019,377.628,391.04,377.628z"/>
		</g>
		<path fill="#F34A57" d="M407.155,348.384c0,8.536-6.922,15.459-15.46,15.459s-15.461-6.924-15.461-15.459
			c0-8.542,6.923-15.46,15.461-15.46S407.155,339.843,407.155,348.384z"/>
		<polygon fill="#F34A57" points="486.789,449.383 483.917,469.652 502.912,488.24 504.651,467.245 		"/>
		<polygon fill="#F34A57" points="492.721,443.498 513.062,440.582 531.598,459.626 510.599,461.307 		"/>
		<path d="M392.064,348.628"/>
		<polygon fill="#201600" points="489.473,475.062 492.242,454.782 493.016,455.794 490.492,476.06 		"/>
		<polygon fill="#201600" points="495.568,481.105 498.339,460.827 499.11,461.838 496.588,482.104 		"/>
		<polygon fill="#201600" points="504.615,456.36 526.917,453.812 525.813,453.031 503.529,455.331 		"/>
		<polygon fill="#201600" points="497.726,449.441 520.034,446.959 518.933,446.174 496.643,448.408 		"/>
		<path fill="#5D4837" d="M394.77,345.215L394.77,345.215c-0.811-0.823-1.935-1.336-3.18-1.336c-2.465,0-4.464,2.005-4.464,4.479
			c0,1.352,0.609,2.549,1.553,3.371l-0.01,0.01l115.982,115.507l5.904-5.903L394.77,345.215z"/>
		<path fill="#C9C8C8" d="M394.038,352.872l-100.76,101.785l-9.984,9.908c-1.403-1.267-2.787-2.558-4.143-3.913
			c-1.092-1.092-2.139-2.187-3.167-3.305l9.968-9.931l101.771-100.859l3.307,3.684L394.038,352.872z"/>
	</g>
</g>
</svg>
