<?xml version="1.0" encoding="utf-8"?>
<!-- Generator: Adobe Illustrator 16.2.1, SVG Export Plug-In . SVG Version: 6.00 Build 0)  -->
<!DOCTYPE svg PUBLIC "-//W3C//DTD SVG 1.1//EN" "http://www.w3.org/Graphics/SVG/1.1/DTD/svg11.dtd">
<svg version="1.1" id="Capa_1" xmlns="http://www.w3.org/2000/svg" xmlns:xlink="http://www.w3.org/1999/xlink" x="0px" y="0px"
	 width="106.447px" height="114.167px" viewBox="0 0 106.447 114.167" enable-background="new 0 0 106.447 114.167"
	 xml:space="preserve">
<g>
	<path fill="#FFFFFF" d="M53.223,18.733c-17.308,0-31.388,12.078-31.388,26.925s14.081,26.925,31.388,26.925
		c17.306,0,31.387-12.078,31.387-26.924C84.61,30.812,70.53,18.733,53.223,18.733z M53.223,65.342
		c-12.651,0-22.945-8.83-22.945-19.684c0-10.853,10.293-19.683,22.945-19.683c12.651,0,22.944,8.83,22.944,19.683
		C76.168,56.512,65.875,65.342,53.223,65.342z"/>
	<path fill="#FFFFFF" d="M53.223,0C23.875,0,0,18.93,0,42.196c0,13.419,14.194,33.411,22.655,44.133
		c5.567,7.055,11.549,13.769,16.844,18.905c8.499,8.242,11.541,8.933,13.726,8.933c2.216,0,5.088-0.69,13.561-8.938
		c5.308-5.166,11.292-11.876,16.854-18.894c8.52-10.748,22.81-30.776,22.81-44.139C106.447,18.93,82.571,0,53.223,0z M77.786,81.124
		c-10.917,14.048-20.938,23.54-24.613,25.964c-3.691-2.35-13.552-11.615-24.621-25.921C15.772,64.651,8.443,50.447,8.443,42.196
		C8.442,22.621,28.531,6.693,53.223,6.693c24.691,0,44.78,15.926,44.78,35.503C98.004,50.399,90.635,64.587,77.786,81.124z"/>
</g>
</svg>
