<?xml version="1.0" encoding="utf-8"?>
<!-- Generator: Adobe Illustrator 16.2.1, SVG Export Plug-In . SVG Version: 6.00 Build 0)  -->
<!DOCTYPE svg PUBLIC "-//W3C//DTD SVG 1.1//EN" "http://www.w3.org/Graphics/SVG/1.1/DTD/svg11.dtd">
<svg version="1.1" id="Layer_1" xmlns="http://www.w3.org/2000/svg" xmlns:xlink="http://www.w3.org/1999/xlink" x="0px" y="0px"
	 width="320.667px" height="82.167px" viewBox="0 0 320.667 82.167" enable-background="new 0 0 320.667 82.167"
	 xml:space="preserve">
<g enable-background="new    ">
	<path fill="#BA2025" d="M12.96,70.794C9.9,68.037,7.619,65.23,6.12,62.38c-1.5-2.85-2.25-6.016-2.25-9.496V23.005
		c0-2.939,0.524-5.654,1.575-8.145C6.494,12.371,7.95,10.24,9.81,8.47c1.859-1.769,4.019-3.149,6.48-4.14
		c2.459-0.99,5.099-1.485,7.92-1.485c3.42,0,6.6,0.766,9.54,2.295c2.939,1.53,5.79,3.856,8.55,6.976
		c2.34,2.641,4.08,5.22,5.22,7.739c1.139,2.521,1.71,5.221,1.71,8.101v29.88c0,2.16-0.27,4.139-0.81,5.939l1.8,1.801v12.059H29.16
		c-2.88,0-5.641-0.555-8.28-1.664C18.239,74.859,15.6,73.134,12.96,70.794z M43.92,69.445H24.21c-2.16,0-4.246-0.389-6.255-1.17
		c-2.011-0.779-3.811-1.891-5.4-3.33c-1.591-1.439-2.866-3.18-3.825-5.221c-0.96-2.039-1.44-4.318-1.44-6.84V23.005
		c0-2.52,0.479-4.8,1.44-6.84c0.959-2.039,2.234-3.78,3.825-5.22c1.589-1.44,3.389-2.55,5.4-3.33c2.009-0.779,4.095-1.17,6.255-1.17
		s4.244,0.391,6.255,1.17c2.01,0.78,3.794,1.89,5.355,3.33c1.56,1.439,2.82,3.181,3.78,5.22c0.959,2.04,1.44,4.32,1.44,6.84v29.879
		c0,2.16-0.375,4.186-1.125,6.076c-0.751,1.889-1.755,3.525-3.015,4.904h7.02v-1.799h-3.33c0.72-1.381,1.29-2.82,1.71-4.32
		c0.419-1.5,0.63-3.119,0.63-4.861V23.005c0-2.7-0.495-5.189-1.485-7.47c-0.99-2.279-2.326-4.23-4.005-5.851
		c-1.68-1.619-3.661-2.88-5.94-3.779c-2.281-0.9-4.711-1.351-7.29-1.351c-2.581,0-5.01,0.45-7.29,1.351
		c-2.281,0.899-4.261,2.16-5.94,3.779c-1.681,1.62-3.015,3.571-4.005,5.851c-0.99,2.28-1.485,4.77-1.485,7.47v29.879
		c0,2.701,0.495,5.191,1.485,7.471c0.99,2.281,2.324,4.23,4.005,5.85c1.679,1.621,3.659,2.881,5.94,3.781
		c2.28,0.898,4.709,1.35,7.29,1.35h19.71V69.445z M43.92,65.755H31.5c2.16-1.199,3.974-2.895,5.445-5.086
		c1.47-2.189,2.205-4.783,2.205-7.785V23.005c0-2.219-0.42-4.229-1.26-6.03c-0.841-1.8-1.951-3.344-3.33-4.635
		c-1.381-1.289-2.97-2.295-4.77-3.015c-1.8-0.721-3.661-1.08-5.58-1.08c-1.921,0-3.78,0.359-5.58,1.08
		c-1.8,0.72-3.39,1.726-4.77,3.015c-1.381,1.291-2.49,2.835-3.33,4.635c-0.841,1.801-1.26,3.812-1.26,6.03v29.879
		c0,2.221,0.419,4.23,1.26,6.031c0.84,1.799,1.949,3.346,3.33,4.635c1.38,1.291,2.97,2.281,4.77,2.969
		c1.8,0.691,3.659,1.035,5.58,1.035h19.71V65.755z M37.26,52.884c0,1.861-0.33,3.586-0.99,5.176c-0.661,1.59-1.561,2.955-2.7,4.096
		c-1.14,1.141-2.52,2.023-4.14,2.654c-1.62,0.631-3.361,0.945-5.22,0.945c-1.921,0-3.676-0.314-5.265-0.945
		c-1.59-0.631-2.956-1.514-4.095-2.654c-1.141-1.141-2.041-2.506-2.7-4.096c-0.661-1.59-0.99-3.314-0.99-5.176V23.005
		c0-1.92,0.329-3.675,0.99-5.265c0.66-1.589,1.56-2.939,2.7-4.05c1.139-1.11,2.504-1.98,4.095-2.61
		c1.589-0.63,3.344-0.945,5.265-0.945c1.859,0,3.6,0.315,5.22,0.945c1.62,0.63,3,1.5,4.14,2.61c1.139,1.11,2.039,2.461,2.7,4.05
		c0.66,1.59,0.99,3.345,0.99,5.265V52.884z M35.46,23.005c0-1.679-0.315-3.209-0.945-4.59c-0.63-1.38-1.456-2.534-2.475-3.465
		c-1.021-0.93-2.205-1.649-3.555-2.16c-1.35-0.509-2.776-0.765-4.275-0.765c-1.5,0-2.925,0.256-4.275,0.765
		c-1.35,0.511-2.536,1.23-3.555,2.16c-1.021,0.931-1.831,2.085-2.43,3.465c-0.601,1.381-0.9,2.911-0.9,4.59v29.879
		c0,1.682,0.3,3.195,0.9,4.545c0.599,1.352,1.409,2.506,2.43,3.465c1.02,0.961,2.205,1.697,3.555,2.205
		c1.35,0.512,2.774,0.766,4.275,0.766c1.499,0,2.925-0.254,4.275-0.766c1.35-0.508,2.534-1.244,3.555-2.205
		c1.02-0.959,1.845-2.113,2.475-3.465c0.63-1.35,0.945-2.863,0.945-4.545V23.005z M33.57,52.884c0,2.881-0.841,5.131-2.52,6.75
		c-1.68,1.621-3.96,2.432-6.84,2.432s-5.161-0.811-6.84-2.432c-1.681-1.619-2.52-3.869-2.52-6.75V23.005
		c0-2.88,0.839-5.13,2.52-6.75c1.679-1.62,3.96-2.43,6.84-2.43s5.16,0.81,6.84,2.43c1.679,1.62,2.52,3.87,2.52,6.75V52.884z
		 M31.86,23.005c0-1.139-0.135-1.89-0.405-2.25s-1.035-0.54-2.295-0.54c-2.52,0-4.486,0.675-5.895,2.025
		c-1.411,1.35-2.115,3.255-2.115,5.715v29.88c0,1.201,0.18,1.92,0.54,2.16s1.2,0.359,2.52,0.359c2.34,0,4.199-0.66,5.58-1.98
		c1.379-1.318,2.07-3.15,2.07-5.49V23.005z"/>
	<path fill="#BA2025" d="M81.63,4.015h12.69L99,9.235v49.86c0,2.879-0.526,5.535-1.575,7.965c-1.051,2.43-2.491,4.529-4.32,6.301
		c-1.831,1.768-3.96,3.133-6.39,4.094c-2.43,0.959-5.026,1.439-7.785,1.439c-5.58,0-10.951-2.309-16.11-6.93
		c-3.06-2.639-5.355-5.398-6.885-8.279c-1.53-2.881-2.295-6.061-2.295-9.541V4.015h12.6l4.68,5.221v49.86
		c0,1.141,0.165,1.83,0.495,2.07c0.329,0.24,1.184,0.359,2.565,0.359c2.34,0,4.199-0.66,5.58-1.98c1.379-1.318,2.07-3.119,2.07-5.4
		V4.015z M90.72,54.144c0,2.461-0.481,4.711-1.44,6.75c-0.96,2.041-2.221,3.781-3.78,5.221c-1.561,1.439-3.345,2.551-5.355,3.33
		c-2.011,0.781-4.065,1.17-6.165,1.17c-2.16,0-4.245-0.389-6.255-1.17c-2.011-0.779-3.811-1.891-5.4-3.33
		c-1.59-1.439-2.866-3.18-3.825-5.221c-0.96-2.039-1.44-4.289-1.44-6.75V5.635h-1.8v48.509c0,2.701,0.479,5.176,1.44,7.426
		c0.959,2.25,2.295,4.201,4.005,5.85c1.71,1.652,3.69,2.926,5.94,3.826c2.25,0.898,4.694,1.35,7.335,1.35
		c2.579,0,5.009-0.451,7.29-1.35c2.28-0.9,4.26-2.174,5.94-3.826c1.679-1.648,3.015-3.6,4.005-5.85
		c0.99-2.25,1.485-4.725,1.485-7.426V5.635h-1.98V54.144z M86.939,54.144c0,1.861-0.315,3.572-0.945,5.131
		c-0.63,1.561-1.53,2.91-2.7,4.051c-1.17,1.141-2.551,2.023-4.14,2.654c-1.591,0.631-3.316,0.945-5.175,0.945
		c-1.921,0-3.676-0.314-5.265-0.945c-1.591-0.631-2.956-1.514-4.095-2.654c-1.141-1.141-2.041-2.49-2.7-4.051
		c-0.661-1.559-0.99-3.27-0.99-5.131V5.635h-1.98v48.509c0,2.16,0.419,4.141,1.26,5.941c0.84,1.799,1.965,3.346,3.375,4.635
		c1.409,1.291,3.015,2.295,4.815,3.016c1.8,0.719,3.659,1.08,5.58,1.08c1.92,0,3.765-0.361,5.535-1.08
		c1.769-0.721,3.344-1.725,4.725-3.016c1.379-1.289,2.489-2.836,3.33-4.635c0.839-1.801,1.26-3.781,1.26-5.941V5.635h-1.89V54.144z
		 M83.25,54.144c0,2.881-0.825,5.102-2.475,6.66c-1.651,1.562-3.915,2.34-6.795,2.34c-2.88,0-5.175-0.777-6.885-2.34
		c-1.71-1.559-2.565-3.779-2.565-6.66V5.635h-1.8v48.509c0,1.682,0.3,3.195,0.9,4.547c0.599,1.35,1.424,2.49,2.475,3.42
		c1.049,0.93,2.25,1.65,3.6,2.158c1.35,0.512,2.774,0.766,4.275,0.766c1.44,0,2.835-0.254,4.185-0.766
		c1.35-0.508,2.534-1.229,3.555-2.158c1.02-0.93,1.83-2.07,2.43-3.42c0.599-1.352,0.9-2.865,0.9-4.547V5.635h-1.8V54.144z"/>
	<path fill="#BA2025" d="M131.04,50.816h12.6l4.681,5.219v3.061c0,2.879-0.527,5.535-1.576,7.965
		c-1.051,2.43-2.475,4.529-4.275,6.301c-1.8,1.768-3.93,3.133-6.39,4.094c-2.461,0.959-5.071,1.439-7.83,1.439
		c-5.521,0-10.89-2.34-16.11-7.02c-3.001-2.639-5.281-5.385-6.84-8.234c-1.561-2.85-2.34-6.016-2.34-9.496V23.005
		c0-2.939,0.524-5.654,1.575-8.145c1.049-2.489,2.504-4.62,4.365-6.391c1.859-1.769,4.019-3.149,6.48-4.14
		c2.459-0.99,5.099-1.485,7.92-1.485c3.54,0,6.795,0.796,9.765,2.385c2.97,1.591,5.834,3.976,8.595,7.155
		c2.099,2.521,3.735,5.026,4.905,7.516c1.17,2.49,1.756,5.175,1.756,8.055v3.24h-12.151l-5.13-4.681v-3.51
		c0-1.139-0.135-1.89-0.405-2.25s-1.066-0.54-2.385-0.54c-2.52,0-4.471,0.675-5.85,2.025c-1.381,1.35-2.07,3.255-2.07,5.715v4.32
		h11.16l4.68,5.22v12.149h-15.84v9.451c0,1.021,0.165,1.68,0.495,1.98c0.329,0.301,1.154,0.449,2.475,0.449
		c2.399,0,4.289-0.66,5.67-1.98c1.38-1.318,2.07-3.119,2.07-5.4V50.816z M140.129,54.144c0,2.461-0.481,4.711-1.44,6.75
		c-0.96,2.041-2.22,3.781-3.78,5.221c-1.561,1.439-3.346,2.551-5.355,3.33c-2.011,0.781-4.095,1.17-6.255,1.17
		c-2.16,0-4.245-0.389-6.255-1.17c-2.011-0.779-3.795-1.891-5.355-3.33c-1.561-1.439-2.821-3.18-3.78-5.221
		c-0.96-2.039-1.44-4.289-1.44-6.75V23.005c0-2.52,0.48-4.8,1.44-6.84c0.959-2.039,2.219-3.78,3.78-5.22
		c1.56-1.44,3.344-2.55,5.355-3.33c2.01-0.779,4.095-1.17,6.255-1.17c2.16,0,4.244,0.391,6.255,1.17
		c2.009,0.78,3.794,1.89,5.355,3.33c1.56,1.439,2.819,3.181,3.78,5.22c0.959,2.04,1.44,4.32,1.44,6.84v1.89h1.8v-1.89
		c0-2.7-0.481-5.189-1.44-7.47c-0.96-2.279-2.281-4.23-3.96-5.851c-1.68-1.619-3.66-2.88-5.94-3.779
		c-2.281-0.9-4.711-1.351-7.29-1.351c-2.58,0-5.01,0.45-7.29,1.351c-2.281,0.899-4.261,2.16-5.94,3.779
		c-1.68,1.62-3.001,3.571-3.96,5.851c-0.96,2.28-1.44,4.77-1.44,7.47v31.139c0,2.701,0.479,5.176,1.44,7.426
		c0.959,2.25,2.28,4.201,3.96,5.85c1.679,1.652,3.659,2.926,5.94,3.826c2.28,0.898,4.71,1.35,7.29,1.35
		c2.579,0,5.009-0.451,7.29-1.35c2.28-0.9,4.26-2.174,5.94-3.826c1.679-1.648,3-3.6,3.96-5.85c0.959-2.25,1.44-4.725,1.44-7.426
		v-1.709h-1.8V54.144z M110.339,23.005c0-1.92,0.315-3.675,0.945-5.265c0.63-1.589,1.53-2.939,2.7-4.05s2.534-1.98,4.095-2.61
		c1.56-0.63,3.299-0.945,5.22-0.945c3.839,0,6.975,1.186,9.405,3.556c2.43,2.37,3.645,5.476,3.645,9.314v1.89h1.89v-1.89
		c0-2.219-0.42-4.229-1.26-6.03c-0.841-1.8-1.951-3.344-3.33-4.635c-1.381-1.289-2.97-2.295-4.77-3.015
		c-1.8-0.721-3.66-1.08-5.58-1.08c-1.921,0-3.78,0.359-5.58,1.08c-1.8,0.72-3.39,1.726-4.77,3.015
		c-1.381,1.291-2.491,2.835-3.33,4.635c-0.841,1.801-1.26,3.812-1.26,6.03v31.139c0,2.16,0.419,4.141,1.26,5.941
		c0.839,1.799,1.949,3.346,3.33,4.635c1.379,1.291,2.97,2.295,4.77,3.016c1.8,0.719,3.659,1.08,5.58,1.08
		c1.92,0,3.78-0.361,5.58-1.08c1.8-0.721,3.389-1.725,4.77-3.016c1.379-1.289,2.489-2.836,3.33-4.635
		c0.839-1.801,1.26-3.781,1.26-5.941v-1.709h-1.89v1.709c0,1.861-0.315,3.572-0.945,5.131c-0.63,1.561-1.53,2.91-2.7,4.051
		s-2.551,2.023-4.14,2.654c-1.59,0.631-3.345,0.945-5.265,0.945c-1.921,0-3.66-0.314-5.22-0.945
		c-1.561-0.631-2.925-1.514-4.095-2.654s-2.07-2.49-2.7-4.051c-0.63-1.559-0.945-3.27-0.945-5.131V39.565h19.53v-1.801h-19.53
		V23.005z M113.939,23.005c0-2.88,0.839-5.13,2.52-6.75c1.679-1.62,3.96-2.43,6.84-2.43c2.88,0,5.16,0.81,6.84,2.43
		c1.679,1.62,2.52,3.87,2.52,6.75v1.89h1.8v-1.89c0-1.679-0.301-3.209-0.9-4.59c-0.601-1.38-1.426-2.534-2.475-3.465
		c-1.05-0.93-2.25-1.649-3.6-2.16c-1.35-0.509-2.745-0.765-4.185-0.765s-2.835,0.256-4.185,0.765c-1.35,0.511-2.551,1.23-3.6,2.16
		c-1.051,0.931-1.876,2.085-2.475,3.465c-0.601,1.381-0.9,2.911-0.9,4.59v12.87h17.73v-1.98h-15.93V23.005z M132.66,54.144
		c0,2.881-0.841,5.102-2.52,6.66c-1.681,1.562-3.96,2.34-6.84,2.34c-2.88,0-5.161-0.777-6.84-2.34
		c-1.681-1.559-2.52-3.779-2.52-6.66V43.345h15.93v-1.89h-17.73v12.689c0,1.682,0.299,3.195,0.9,4.547
		c0.599,1.35,1.424,2.49,2.475,3.42c1.049,0.93,2.25,1.65,3.6,2.158c1.35,0.512,2.745,0.766,4.185,0.766s2.835-0.254,4.185-0.766
		c1.35-0.508,2.55-1.229,3.6-2.158c1.049-0.93,1.875-2.07,2.475-3.42c0.599-1.352,0.9-2.865,0.9-4.547v-1.709h-1.8V54.144z"/>
	<path fill="#BA2025" d="M173.429,72.955V4.015h20.16c3.42,0,6.689,0.826,9.809,2.476c3.119,1.65,5.91,4.005,8.371,7.064
		c2.16,2.7,3.869,5.326,5.129,7.875c1.262,2.551,1.891,5.175,1.891,7.875c0,2.821-0.555,5.445-1.664,7.875
		c-1.111,2.431-2.611,4.56-4.5,6.39c-1.891,1.832-4.051,3.271-6.48,4.32c-2.43,1.051-4.965,1.574-7.605,1.574h-7.74v28.17h-12.15
		L173.429,72.955z M184.41,43.076h9.18c2.459,0,4.814-0.48,7.064-1.441c2.25-0.958,4.244-2.294,5.984-4.004s3.135-3.689,4.186-5.939
		c1.049-2.25,1.574-4.694,1.574-7.336c0-2.52-0.494-4.919-1.484-7.199s-2.326-4.275-4.004-5.985c-1.682-1.71-3.678-3.06-5.986-4.05
		c-2.311-0.99-4.756-1.485-7.334-1.485h-18.451v65.701h1.891V7.615h16.561c2.34,0,4.545,0.45,6.615,1.35
		c2.068,0.9,3.869,2.115,5.398,3.646c1.531,1.529,2.746,3.315,3.646,5.354c0.898,2.041,1.35,4.171,1.35,6.39
		c0,2.281-0.48,4.455-1.439,6.525c-0.961,2.07-2.236,3.87-3.826,5.4c-1.59,1.529-3.406,2.745-5.445,3.645
		c-2.039,0.9-4.139,1.351-6.299,1.351h-10.98v30.06h1.801V43.076z M180.718,39.295h12.871c1.979,0,3.883-0.374,5.715-1.125
		c1.828-0.749,3.434-1.784,4.814-3.104c1.379-1.319,2.488-2.895,3.33-4.726c0.84-1.829,1.26-3.825,1.26-5.985
		c0-2.039-0.391-3.974-1.17-5.805c-0.781-1.829-1.846-3.404-3.195-4.725c-1.35-1.319-2.939-2.37-4.77-3.15
		c-1.83-0.779-3.824-1.17-5.984-1.17h-14.76v61.831h1.889V39.295z M180.718,37.495v-26.19h12.871c1.859,0,3.613,0.347,5.264,1.035
		c1.65,0.69,3.061,1.636,4.23,2.835c1.17,1.201,2.1,2.596,2.791,4.186c0.688,1.59,1.035,3.255,1.035,4.994
		c0,1.801-0.348,3.511-1.035,5.131c-0.691,1.619-1.637,3.015-2.836,4.185c-1.201,1.17-2.609,2.101-4.23,2.79
		c-1.619,0.69-3.359,1.035-5.219,1.035H180.718z M193.589,35.785c3.299,0,6.029-1.004,8.189-3.016c2.16-2.009,3.24-4.814,3.24-8.415
		c0-1.559-0.285-3.028-0.855-4.409c-0.57-1.38-1.365-2.565-2.385-3.556c-1.021-0.989-2.236-1.769-3.645-2.34
		c-1.41-0.569-2.926-0.854-4.545-0.854h-10.891v22.59H193.589z M184.41,33.715v-18.63h9.18c2.879,0,5.188,0.825,6.93,2.475
		c1.738,1.651,2.609,3.915,2.609,6.795c0,2.881-0.871,5.161-2.609,6.841c-1.742,1.68-4.051,2.52-6.93,2.52H184.41z M190.798,32.005
		h2.791c2.398,0,4.32-0.689,5.76-2.07c1.439-1.379,2.16-3.239,2.16-5.58c0-1.26-0.15-2.069-0.451-2.43
		c-0.301-0.359-1.141-0.54-2.52-0.54h-7.74V32.005z"/>
	<path fill="#BA2025" d="M249.296,4.015h12.691l4.68,5.221v49.86c0,2.879-0.525,5.535-1.576,7.965
		c-1.049,2.43-2.49,4.529-4.318,6.301c-1.832,1.768-3.961,3.133-6.391,4.094c-2.43,0.959-5.025,1.439-7.785,1.439
		c-5.58,0-10.951-2.309-16.109-6.93c-3.061-2.639-5.355-5.398-6.885-8.279c-1.531-2.881-2.295-6.061-2.295-9.541V4.015h12.6
		l4.68,5.221v49.86c0,1.141,0.164,1.83,0.494,2.07s1.186,0.359,2.566,0.359c2.34,0,4.199-0.66,5.58-1.98
		c1.379-1.318,2.068-3.119,2.068-5.4V4.015z M258.386,54.144c0,2.461-0.48,4.711-1.439,6.75c-0.961,2.041-2.221,3.781-3.779,5.221
		c-1.561,1.439-3.346,2.551-5.355,3.33c-2.012,0.781-4.064,1.17-6.164,1.17c-2.16,0-4.246-0.389-6.256-1.17
		c-2.012-0.779-3.811-1.891-5.4-3.33s-2.865-3.18-3.824-5.221c-0.961-2.039-1.439-4.289-1.439-6.75V5.635h-1.801v48.509
		c0,2.701,0.479,5.176,1.439,7.426c0.959,2.25,2.295,4.201,4.006,5.85c1.709,1.652,3.689,2.926,5.939,3.826
		c2.25,0.898,4.693,1.35,7.336,1.35c2.578,0,5.008-0.451,7.289-1.35c2.279-0.9,4.26-2.174,5.939-3.826
		c1.68-1.648,3.016-3.6,4.006-5.85s1.484-4.725,1.484-7.426V5.635h-1.98V54.144z M254.607,54.144c0,1.861-0.314,3.572-0.945,5.131
		c-0.629,1.561-1.529,2.91-2.699,4.051s-2.551,2.023-4.141,2.654s-3.316,0.945-5.174,0.945c-1.922,0-3.676-0.314-5.266-0.945
		s-2.957-1.514-4.096-2.654c-1.141-1.141-2.039-2.49-2.699-4.051c-0.662-1.559-0.99-3.27-0.99-5.131V5.635h-1.98v48.509
		c0,2.16,0.42,4.141,1.26,5.941c0.84,1.799,1.965,3.346,3.375,4.635c1.41,1.291,3.016,2.295,4.816,3.016
		c1.799,0.719,3.658,1.08,5.58,1.08c1.918,0,3.764-0.361,5.535-1.08c1.768-0.721,3.344-1.725,4.725-3.016
		c1.379-1.289,2.488-2.836,3.33-4.635c0.84-1.801,1.26-3.781,1.26-5.941V5.635h-1.891V54.144z M250.917,54.144
		c0,2.881-0.826,5.102-2.475,6.66c-1.652,1.562-3.916,2.34-6.795,2.34c-2.881,0-5.176-0.777-6.887-2.34
		c-1.709-1.559-2.564-3.779-2.564-6.66V5.635h-1.799v48.509c0,1.682,0.299,3.195,0.898,4.547c0.6,1.35,1.426,2.49,2.477,3.42
		c1.049,0.93,2.25,1.65,3.6,2.158c1.35,0.512,2.773,0.766,4.275,0.766c1.439,0,2.834-0.254,4.184-0.766
		c1.352-0.508,2.535-1.229,3.555-2.158s1.83-2.07,2.432-3.42c0.598-1.352,0.898-2.865,0.898-4.547V5.635h-1.799V54.144z"/>
	<path fill="#BA2025" d="M270.626,72.955V4.015h20.16c3.781,0,7.096,0.676,9.945,2.025s5.625,3.525,8.324,6.525
		c2.34,2.699,4.035,5.31,5.086,7.829c1.049,2.521,1.574,5.342,1.574,8.46c0,3.601-0.525,6.57-1.574,8.91
		c-1.051,2.34-2.445,4.262-4.186,5.76c2.039,1.98,3.539,4.096,4.5,6.346c0.959,2.25,1.439,4.994,1.439,8.234
		c0,3.182-0.48,5.984-1.439,8.414c-0.961,2.432-2.326,4.471-4.094,6.121c-1.771,1.648-3.887,2.895-6.346,3.734
		c-2.461,0.84-5.221,1.26-8.279,1.26h-19.891L270.626,72.955z M309.507,53.156c0-3.84-0.631-6.887-1.891-9.137
		s-2.91-4.063-4.949-5.444c2.039-1.38,3.674-3.209,4.904-5.49c1.229-2.279,1.846-5.34,1.846-9.18c0-5.94-1.682-10.47-5.041-13.59
		c-3.361-3.119-7.891-4.681-13.59-4.681h-18.449v65.701h18.449c5.699,0,10.244-1.545,13.635-4.635
		C307.81,63.611,309.507,59.095,309.507,53.156z M274.136,69.535V7.615h16.65c5.221,0,9.314,1.41,12.285,4.229
		c2.971,2.821,4.455,6.84,4.455,12.061c0,3.42-0.555,6.331-1.664,8.729c-1.111,2.4-3.105,4.381-5.986,5.94
		c2.881,1.561,4.906,3.542,6.076,5.94c1.17,2.4,1.754,5.281,1.754,8.641c0,5.16-1.516,9.18-4.545,12.059
		c-3.029,2.881-7.154,4.32-12.375,4.32H274.136z M306.087,53.156c0-3.84-0.916-7.035-2.746-9.586
		c-1.83-2.549-4.273-4.214-7.334-4.995c3.061-0.84,5.475-2.534,7.244-5.085c1.77-2.55,2.656-5.745,2.656-9.585
		c0-4.379-1.352-7.875-4.051-10.485s-6.391-3.915-11.07-3.915h-14.85v58.049h14.85c4.68,0,8.4-1.289,11.16-3.869
		S306.087,57.595,306.087,53.156z M277.917,37.675v-26.37h12.869c4.32,0,7.635,1.156,9.945,3.465
		c2.309,2.311,3.465,5.355,3.465,9.136c0,1.921-0.285,3.721-0.855,5.399c-0.57,1.681-1.426,3.136-2.564,4.365
		c-1.141,1.23-2.551,2.205-4.23,2.925c-1.68,0.721-3.6,1.08-5.76,1.08H277.917z M290.787,39.475c2.16,0,4.08,0.347,5.76,1.035
		c1.68,0.69,3.09,1.652,4.23,2.88c1.139,1.23,2.01,2.686,2.609,4.365s0.9,3.48,0.9,5.4c0,3.779-1.17,6.824-3.51,9.135
		s-5.67,3.465-9.99,3.465h-12.869V39.475H290.787z M279.716,35.785h11.07c3.42,0,6.211-0.99,8.371-2.97
		c2.16-1.98,3.238-4.95,3.238-8.91c0-3.3-0.988-5.909-2.969-7.83c-1.98-1.92-4.859-2.88-8.641-2.88h-11.07V35.785z M302.578,53.156
		c0-3.961-1.111-6.9-3.33-8.82c-2.221-1.92-5.041-2.88-8.461-2.88h-11.07v22.5h11.07c3.781,0,6.689-0.975,8.73-2.924
		C301.556,59.082,302.578,56.455,302.578,53.156z M281.607,33.895v-18.81h9.18c3.119,0,5.549,0.735,7.291,2.205
		c1.738,1.471,2.609,3.676,2.609,6.615c0,3.48-0.932,6.016-2.791,7.604c-1.859,1.591-4.229,2.385-7.109,2.385H281.607z
		 M281.607,62.066v-18.9h9.18c2.881,0,5.266,0.824,7.156,2.475c1.889,1.65,2.834,4.156,2.834,7.516c0,2.939-0.887,5.16-2.654,6.66
		c-1.771,1.5-4.217,2.25-7.336,2.25H281.607z M287.998,32.275h2.789c2.34,0,4.289-0.676,5.85-2.025s2.34-3.465,2.34-6.345
		c0-0.959-0.195-1.62-0.584-1.98c-0.391-0.359-1.275-0.54-2.654-0.54h-7.74V32.275z M287.998,60.445h2.789
		c2.58,0,4.619-0.615,6.121-1.846c1.498-1.229,2.25-3.043,2.25-5.443c0-1.621-0.227-2.641-0.676-3.061s-1.365-0.631-2.744-0.631
		h-7.74V60.445z"/>
</g>
</svg>
